<svg width="186" height="49" viewBox="0 0 186 49" fill="none" xmlns="http://www.w3.org/2000/svg">
<path d="M2.00002 33.5307C4.71643 26.7052 16.9403 13.0541 2.00002 2.23632C2.00002 2.23632 9.87763 -0.545401 22.3732 2.23632C33.6916 5.84226 63.6627 13.0541 93 13.0541V37.3942M2.00002 33.5307C9.47016 31.9853 24.8632 35.72 27.1269 37.3942C59.7239 44.194 83.0398 39.7123 93 37.3942M2.00002 33.5307C4.00002 34.8185 8.60003 38.1154 11 41C13.4 43.8846 22.7513 44.5353 27.1269 44.5C55.9179 47.8333 109.4 51.8 93 41V37.3942" stroke="white"/>
<path d="M184.061 33.5307C181.345 26.7052 169.121 13.0541 184.061 2.23632C184.061 2.23632 176.184 -0.545401 163.688 2.23632C152.37 5.84226 122.398 13.0541 93.0611 13.0541V37.3942M184.061 33.5307C176.591 31.9853 161.198 35.72 158.934 37.3942C126.337 44.194 103.021 39.7123 93.0611 37.3942M184.061 33.5307C182.061 34.8185 177.461 38.1154 175.061 41C172.661 43.8846 163.31 44.5353 158.934 44.5C130.143 47.8333 76.6611 51.8 93.0611 41V37.3942" stroke="white"/>
<path d="M21 10C27.8 9.2 34.1667 11.6667 36.5 13C38 13.3333 40.9 14.2 40.5 15C40.1 15.8 43.3333 15.3333 45 15C45 14.1667 45.5 13 47.5 15C49.5 17 62.5 17.5 56 17.5L68.5 15C70.9 17 74.8333 17.5 76.5 17.5H82.5" stroke="white"/>
<path d="M165 10C158.2 9.2 151.833 11.6667 149.5 13C148 13.3333 145.1 14.2 145.5 15C145.9 15.8 142.667 15.3333 141 15C141 14.1667 140.5 13 138.5 15C136.5 17 123.5 17.5 130 17.5L117.5 15C115.1 17 111.167 17.5 109.5 17.5H103.5" stroke="white"/>
<path d="M19.5 21C24.7 18.2 31.6667 19.8333 34.5 21H41" stroke="white"/>
<path d="M37.5 20.5H42.5" stroke="white"/>
<path d="M42 20.5C48.8 22.9 61 20.5 56 23.5H68.5" stroke="white"/>
<path d="M144 20.5C137.2 22.9 125 20.5 130 23.5H117.5" stroke="white"/>
<path d="M73 23.5H67" stroke="white"/>
<path d="M113 23.5H119" stroke="white"/>
<path d="M16.5 26.5C21.3 28.5 24.8333 27.3333 26 26.5L32 28.5C35.2 26.9 43.6667 29.1667 47.5 30.5C51.9 30.5 63.5 28.5 59.5 28.5L78.5 30.5" stroke="white"/>
<path d="M169.5 26.5C164.7 28.5 161.167 27.3333 160 26.5L154 28.5C150.8 26.9 142.333 29.1667 138.5 30.5C134.1 30.5 122.5 28.5 126.5 28.5L107.5 30.5" stroke="white"/>
</svg>
