<svg width="143" height="27" viewBox="0 0 143 27" fill="none" xmlns="http://www.w3.org/2000/svg">
<path d="M17.172 26.412C15.516 26.412 13.848 26.064 12.168 25.368C10.488 24.696 8.856 23.952 7.272 23.136C7.104 23.448 6.96 23.736 6.84 24C6.72 24.288 6.6 24.528 6.48 24.72C5.832 25.824 5.076 26.376 4.212 26.376C3.42 26.376 2.688 25.92 2.016 25.008C1.632 24.456 1.32 23.832 1.08 23.136C0.84 22.44 0.72 21.792 0.72 21.192C0.72 20.64 0.816 20.184 1.008 19.824C1.224 19.464 1.56 19.284 2.016 19.284C2.496 19.284 3.18 19.512 4.068 19.968C4.956 20.424 5.976 20.976 7.128 21.624C7.992 19.488 8.808 17.328 9.576 15.144C10.344 12.96 11.196 10.812 12.132 8.7C12.42 8.052 12.804 7.404 13.284 6.756C13.764 6.084 14.316 5.532 14.94 5.1C15.564 4.644 16.224 4.416 16.92 4.416C17.448 4.416 18 4.596 18.576 4.956C19.152 5.34 19.596 5.916 19.908 6.684C20.244 7.428 20.472 8.196 20.592 8.988C20.736 9.756 20.796 10.38 20.772 10.86C20.748 10.956 20.676 11.052 20.556 11.148C20.436 11.22 20.388 11.172 20.412 11.004C20.364 10.332 20.208 9.636 19.944 8.916C19.704 8.172 19.332 7.536 18.828 7.008C18.348 6.48 17.7 6.216 16.884 6.216C16.284 6.216 15.684 6.492 15.084 7.044C14.484 7.572 13.908 8.28 13.356 9.168C12.804 10.104 12.252 11.184 11.7 12.408C11.148 13.608 10.632 14.832 10.152 16.08C9.672 17.304 9.228 18.444 8.82 19.5C8.412 20.532 8.076 21.348 7.812 21.948C8.892 22.524 10.032 23.1 11.232 23.676C12.456 24.252 13.68 24.732 14.904 25.116C16.128 25.5 17.304 25.692 18.432 25.692C19.152 25.668 19.752 25.452 20.232 25.044C20.712 24.636 20.892 24.024 20.772 23.208C20.7 22.872 20.556 22.596 20.34 22.38C20.148 22.164 20.064 22.008 20.088 21.912C20.136 21.792 20.196 21.744 20.268 21.768C20.364 21.792 20.448 21.828 20.52 21.876C21.312 22.452 21.708 23.076 21.708 23.748C21.708 24.372 21.384 24.924 20.736 25.404C20.112 25.908 19.344 26.22 18.432 26.34C18.216 26.364 18 26.376 17.784 26.376C17.592 26.4 17.388 26.412 17.172 26.412ZM4.176 25.908C4.488 25.908 4.8 25.764 5.112 25.476C5.424 25.188 5.7 24.816 5.94 24.36C6.132 24.024 6.372 23.508 6.66 22.812C6.228 22.596 5.808 22.38 5.4 22.164C5.016 21.948 4.62 21.756 4.212 21.588C3.684 21.324 3.264 21.192 2.952 21.192C2.544 21.192 2.34 21.468 2.34 22.02C2.34 22.116 2.34 22.236 2.34 22.38C2.364 22.5 2.388 22.644 2.412 22.812C2.556 23.916 2.784 24.708 3.096 25.188C3.432 25.668 3.792 25.908 4.176 25.908ZM26.0483 24.432C25.0883 24.432 24.4043 24.216 23.9963 23.784C23.6123 23.352 23.4203 22.812 23.4203 22.164C23.4203 21.78 23.4803 21.384 23.6003 20.976C23.7203 20.568 23.8763 20.16 24.0683 19.752C23.9003 19.656 23.8163 19.536 23.8163 19.392C23.8163 19.176 24.0683 18.984 24.5723 18.816C24.7883 18.504 25.0523 18.084 25.3643 17.556C25.7003 17.004 26.0603 16.452 26.4443 15.9C26.8523 15.348 27.2723 14.88 27.7043 14.496C28.1363 14.112 28.5563 13.92 28.9643 13.92C29.3003 13.92 29.5163 14.052 29.6123 14.316C29.7083 14.292 29.8403 14.28 30.0083 14.28C30.7043 14.28 31.0523 14.64 31.0523 15.36C31.0523 15.912 30.8603 16.44 30.4763 16.944C30.0923 17.424 29.6363 17.724 29.1083 17.844L29.1443 18.024C29.1443 18.024 29.2643 18.012 29.5043 17.988C29.7443 17.94 29.9483 17.904 30.1163 17.88C30.5243 17.856 30.9683 17.856 31.4483 17.88C31.9283 17.904 32.2403 18.012 32.3843 18.204C32.4323 18.252 32.4203 18.288 32.3483 18.312C32.3003 18.336 32.2523 18.336 32.2043 18.312C32.0123 18.216 31.7003 18.168 31.2683 18.168C30.6923 18.168 30.0083 18.24 29.2163 18.384C28.4483 18.528 27.7403 18.708 27.0923 18.924C26.4443 19.116 26.0003 19.296 25.7603 19.464C25.5443 19.8 25.3283 20.232 25.1123 20.76C24.8963 21.264 24.7883 21.756 24.7883 22.236C24.7883 22.668 24.9083 23.04 25.1483 23.352C25.4123 23.64 25.8803 23.784 26.5523 23.784C27.2723 23.784 27.9323 23.604 28.5323 23.244C29.1563 22.884 29.7323 22.44 30.2603 21.912C30.7883 21.36 31.2563 20.844 31.6643 20.364C31.7123 20.316 31.8803 20.124 32.1683 19.788C32.4563 19.452 32.7563 19.092 33.0683 18.708C33.4043 18.3 33.6443 17.988 33.7883 17.772C33.7883 17.772 33.8123 17.796 33.8603 17.844C33.9083 17.94 33.8963 18.036 33.8243 18.132C33.5123 18.516 33.2003 18.924 32.8883 19.356C32.5763 19.788 32.2523 20.208 31.9163 20.616C31.4363 21.216 30.8963 21.816 30.2963 22.416C29.7203 22.992 29.0843 23.472 28.3883 23.856C27.6923 24.24 26.9123 24.432 26.0483 24.432ZM26.1203 18.744C26.5763 18.576 26.9363 18.456 27.2003 18.384C27.4643 18.312 27.7043 18.228 27.9203 18.132C28.1363 18.012 28.3403 17.88 28.5323 17.736C28.7483 17.568 28.9763 17.34 29.2163 17.052C29.4323 16.788 29.6123 16.5 29.7563 16.188C29.9003 15.852 29.9723 15.552 29.9723 15.288C29.9723 15.048 29.9003 14.856 29.7563 14.712C29.6123 14.568 29.3603 14.664 29.0003 15C28.6403 15.312 28.2563 15.708 27.8483 16.188C27.4643 16.668 27.1043 17.148 26.7683 17.628C26.4563 18.108 26.2403 18.48 26.1203 18.744ZM37.9049 24.324C37.2329 24.324 36.8969 23.808 36.8969 22.776C36.8969 22.128 36.9929 21.516 37.1849 20.94C37.3769 20.34 37.5569 19.74 37.7249 19.14C37.3409 19.548 36.9689 19.944 36.6089 20.328C36.2729 20.712 35.9009 21.096 35.4929 21.48C35.1089 21.84 34.7129 22.2 34.3049 22.56C33.8969 22.896 33.4889 23.196 33.0809 23.46C32.3369 23.94 31.7729 24.18 31.3889 24.18C31.0049 24.18 30.8129 23.952 30.8129 23.496C30.8129 22.968 31.0169 22.26 31.4249 21.372C31.6649 20.844 31.9889 20.268 32.3969 19.644C32.8289 19.02 33.2729 18.408 33.7289 17.808C34.1609 17.28 34.6649 16.74 35.2409 16.188C35.8409 15.636 36.4889 15.168 37.1849 14.784C37.8809 14.4 38.5769 14.208 39.2729 14.208C39.8249 14.208 40.2809 14.34 40.6409 14.604C41.0249 14.844 41.2169 15.24 41.2169 15.792C41.2169 16.368 41.1089 16.716 40.8929 16.836C40.8209 16.908 40.7729 16.932 40.7489 16.908C40.7249 16.884 40.7129 16.872 40.7129 16.872C40.6889 16.632 40.5809 16.392 40.3889 16.152C40.1969 15.888 39.9569 15.708 39.6689 15.612C39.3569 15.516 39.0089 15.468 38.6249 15.468C37.7369 15.468 36.8969 15.732 36.1049 16.26C35.3369 16.764 34.6769 17.364 34.1249 18.06C33.6689 18.66 33.2969 19.284 33.0089 19.932C32.7449 20.556 32.6129 21.108 32.6129 21.588C32.6129 22.308 32.8049 22.668 33.1889 22.668C33.4289 22.668 33.6929 22.56 33.9809 22.344C34.2689 22.128 34.5089 21.936 34.7009 21.768C35.3969 21.144 36.0449 20.46 36.6449 19.716C37.2689 18.948 37.7009 18.408 37.9409 18.096C37.9889 18.048 38.1209 17.976 38.3369 17.88C38.5769 17.76 38.8289 17.664 39.0929 17.592L39.8489 17.412C39.9929 17.412 40.0649 17.424 40.0649 17.448C39.9209 17.64 39.7169 18.036 39.4529 18.636C39.2129 19.236 38.9969 19.884 38.8049 20.58C38.6129 21.252 38.5169 21.828 38.5169 22.308C38.5169 22.692 38.5889 22.944 38.7329 23.064C38.8049 23.136 38.9009 23.172 39.0209 23.172C39.2129 23.172 39.4169 23.112 39.6329 22.992C39.8489 22.848 40.0769 22.692 40.3169 22.524C41.1569 21.9 41.9489 21.132 42.6929 20.22C43.4609 19.308 44.1089 18.492 44.6369 17.772C44.6369 17.772 44.6609 17.796 44.7089 17.844C44.7569 17.964 44.7569 18.06 44.7089 18.132C44.3969 18.54 44.0729 18.972 43.7369 19.428C43.4009 19.86 43.0649 20.292 42.7289 20.724C42.3689 21.132 41.9969 21.54 41.6129 21.948C41.2529 22.332 40.8689 22.692 40.4609 23.028C39.9809 23.412 39.5129 23.724 39.0569 23.964C38.6249 24.204 38.2409 24.324 37.9049 24.324ZM46.8979 24.072C46.5139 24.024 46.2379 23.868 46.0699 23.604C45.9019 23.34 45.8179 23.028 45.8179 22.668C45.8179 22.164 45.9139 21.612 46.1059 21.012C46.3219 20.388 46.5499 19.812 46.7899 19.284C47.0539 18.756 47.2579 18.36 47.4019 18.096L48.0139 17.088C47.7019 17.208 47.4259 17.268 47.1859 17.268C46.6099 17.268 46.1899 16.98 45.9259 16.404C45.8299 16.524 45.7219 16.68 45.6019 16.872C45.4819 17.064 45.3979 17.208 45.3499 17.304C44.9899 17.808 44.5579 18.396 44.0539 19.068C43.5499 19.716 43.0459 20.34 42.5419 20.94C42.0379 21.516 41.5819 21.972 41.1739 22.308H41.1379C41.1139 22.308 41.0899 22.272 41.0659 22.2C41.0419 22.128 41.0539 22.068 41.1019 22.02C41.4379 21.684 41.7739 21.324 42.1099 20.94C42.4459 20.532 42.7579 20.136 43.0459 19.752C43.3099 19.416 43.6099 19.008 43.9459 18.528C44.2819 18.048 44.5939 17.568 44.8819 17.088C45.1699 16.584 45.3739 16.152 45.4939 15.792C45.4699 15.6 45.4819 15.3 45.5299 14.892C45.5779 14.46 45.7819 13.896 46.1419 13.2C46.2859 12.888 46.5379 12.732 46.8979 12.732C47.1379 12.732 47.3659 12.804 47.5819 12.948C47.8219 13.068 47.9779 13.224 48.0499 13.416C47.6179 13.776 47.2459 14.16 46.9339 14.568C46.8139 14.736 46.6819 14.964 46.5379 15.252C46.3939 15.516 46.3219 15.78 46.3219 16.044C46.3219 16.212 46.3699 16.368 46.4659 16.512C46.5619 16.632 46.7539 16.692 47.0419 16.692C47.4259 16.692 47.8099 16.596 48.1939 16.404C48.6019 16.212 48.9739 16.056 49.3099 15.936C49.4779 15.888 49.6339 15.84 49.7779 15.792C49.9219 15.744 50.0539 15.72 50.1739 15.72C50.5099 15.72 50.6659 15.9 50.6419 16.26C50.1139 16.788 49.6339 17.376 49.2019 18.024C48.7699 18.648 48.3859 19.308 48.0499 20.004C47.9779 20.172 47.8699 20.436 47.7259 20.796C47.5819 21.132 47.4499 21.492 47.3299 21.876C47.2339 22.236 47.1859 22.56 47.1859 22.848C47.1859 23.304 47.3419 23.532 47.6539 23.532C47.7739 23.532 47.9179 23.508 48.0859 23.46C48.2779 23.388 48.4939 23.268 48.7339 23.1C49.2859 22.716 49.8499 22.224 50.4259 21.624C51.0019 21 51.5299 20.376 52.0099 19.752C52.5139 19.104 52.9219 18.552 53.2339 18.096C53.2819 18.048 53.3299 18.024 53.3779 18.024C53.4259 18.024 53.4619 18.072 53.4859 18.168C53.5339 18.264 53.5099 18.372 53.4139 18.492C52.6699 19.548 51.9259 20.496 51.1819 21.336C50.4379 22.152 49.7179 22.812 49.0219 23.316C48.6139 23.628 48.2179 23.844 47.8339 23.964C47.4739 24.06 47.1619 24.096 46.8979 24.072ZM51.4716 23.964C51.4716 23.892 51.4956 23.82 51.5436 23.748C51.5916 23.676 51.6276 23.616 51.6516 23.568C51.7236 23.4 51.7956 23.196 51.8676 22.956C51.9636 22.716 52.0956 22.44 52.2636 22.128C52.4556 21.768 52.6596 21.324 52.8756 20.796C53.1156 20.268 53.3436 19.74 53.5596 19.212C53.7756 18.66 53.9556 18.228 54.0996 17.916C54.1476 17.748 54.1956 17.592 54.2436 17.448C54.3156 17.304 54.3636 17.16 54.3876 17.016C54.4116 16.92 54.4236 16.8 54.4236 16.656C54.4236 16.416 54.3636 16.224 54.2436 16.08C54.1236 15.936 53.8956 15.864 53.5596 15.864C53.3196 15.864 53.0436 15.924 52.7316 16.044C52.4436 16.14 52.1796 16.248 51.9396 16.368C51.9396 16.32 51.9516 16.248 51.9756 16.152C52.0236 16.056 52.0716 15.996 52.1196 15.972C52.2156 15.924 52.5156 15.816 53.0196 15.648C53.5236 15.456 53.9916 15.276 54.4236 15.108C54.7836 14.964 55.1556 14.772 55.5396 14.532C55.5876 14.508 55.6956 14.448 55.8636 14.352C56.0556 14.256 56.1756 14.208 56.2236 14.208H56.2956C56.4876 14.208 56.5836 14.34 56.5836 14.604C56.5836 14.772 56.5476 14.988 56.4756 15.252C56.4276 15.516 56.3436 15.804 56.2236 16.116C56.0076 16.644 55.7676 17.16 55.5036 17.664C55.2636 18.168 55.1196 18.48 55.0716 18.6L54.0636 20.868C55.0716 19.86 56.0076 18.888 56.8716 17.952C57.7356 17.016 58.5636 16.092 59.3556 15.18C59.8356 14.628 60.4356 14.352 61.1556 14.352C61.4436 14.352 61.6836 14.4 61.8756 14.496C61.9956 14.544 62.0196 14.592 61.9476 14.64C61.8996 14.688 61.8276 14.724 61.7316 14.748C61.3956 14.844 60.9996 15.168 60.5436 15.72C60.0876 16.272 59.6556 16.932 59.2476 17.7C58.8636 18.444 58.5636 19.164 58.3476 19.86C58.1556 20.484 58.0596 21.06 58.0596 21.588C58.0596 21.924 58.1196 22.2 58.2396 22.416C58.3596 22.632 58.5516 22.74 58.8156 22.74C59.1996 22.74 59.7036 22.524 60.3276 22.092C60.6636 21.852 61.0836 21.468 61.5876 20.94C62.0916 20.388 62.5836 19.812 63.0636 19.212C63.5436 18.612 63.9276 18.132 64.2156 17.772C64.2156 17.772 64.2396 17.796 64.2876 17.844C64.3356 17.964 64.3236 18.06 64.2516 18.132C64.0836 18.372 63.8676 18.672 63.6036 19.032C63.3396 19.392 63.0396 19.776 62.7036 20.184C62.3676 20.568 62.0076 20.964 61.6236 21.372C61.2636 21.78 60.9036 22.128 60.5436 22.416C60.2076 22.704 59.8356 22.944 59.4276 23.136C59.0196 23.328 58.6236 23.424 58.2396 23.424C57.6876 23.424 57.3036 23.256 57.0876 22.92C56.8716 22.56 56.7636 22.14 56.7636 21.66C56.7636 21.252 56.8116 20.832 56.9076 20.4C57.0276 19.968 57.1476 19.56 57.2676 19.176C57.3876 18.816 57.6156 18.312 57.9516 17.664C57.2076 18.264 56.4876 18.876 55.7916 19.5C55.1196 20.124 54.5796 20.748 54.1716 21.372C54.0036 21.612 53.8476 21.912 53.7036 22.272C53.5596 22.632 53.4396 22.98 53.3436 23.316C53.3196 23.388 53.2236 23.46 53.0556 23.532C52.9116 23.58 52.7436 23.628 52.5516 23.676C52.3836 23.7 52.2036 23.736 52.0116 23.784C51.8196 23.832 51.6396 23.904 51.4716 24V23.964ZM72.1733 24.576C72.0533 24.576 72.0413 24.468 72.1373 24.252C72.2333 24.06 72.3652 23.784 72.5332 23.424C72.5813 23.328 72.6773 23.208 72.8213 23.064C72.9653 22.896 73.0493 22.752 73.0732 22.632C73.3373 21.888 73.5773 21.06 73.7933 20.148C74.0093 19.236 74.1653 18.348 74.2613 17.484C74.2613 17.412 74.2613 17.352 74.2613 17.304C74.2853 17.232 74.2973 17.172 74.2973 17.124C74.2973 16.644 74.1533 16.404 73.8653 16.404C73.5773 16.404 73.2053 16.608 72.7493 17.016C72.2933 17.424 71.9213 17.784 71.6333 18.096L70.3373 19.788C70.3373 19.788 70.3253 19.8 70.3013 19.824C70.3013 19.824 70.2893 19.824 70.2653 19.824C70.1213 19.824 70.0853 19.728 70.1572 19.536L71.1653 18.132C71.5733 17.556 71.9813 16.98 72.3893 16.404C72.8213 15.804 73.2653 15.348 73.7213 15.036C73.9373 14.892 74.1653 14.772 74.4053 14.676C74.6693 14.556 74.9093 14.496 75.1253 14.496C75.3893 14.496 75.6173 14.592 75.8093 14.784C76.0013 14.976 76.0973 15.336 76.0973 15.864C76.0973 16.248 76.0253 16.752 75.8813 17.376C75.7373 18.048 75.4973 18.768 75.1613 19.536C74.8493 20.28 74.5253 20.988 74.1893 21.66C73.8773 22.308 73.6133 22.824 73.3973 23.208C74.1173 22.488 74.7773 21.828 75.3773 21.228C75.9773 20.628 76.5773 20.028 77.1773 19.428C77.7773 18.804 78.4253 18.108 79.1213 17.34C79.4093 17.028 79.6973 16.872 79.9853 16.872C80.1773 16.872 80.2733 16.956 80.2733 17.124C80.2733 17.292 80.1773 17.472 79.9853 17.664L79.9493 17.7C80.0213 18.588 80.1893 19.392 80.4533 20.112C80.7173 20.832 81.0293 21.42 81.3893 21.876C81.9173 22.548 82.4453 22.884 82.9733 22.884C83.4533 22.884 83.8853 22.656 84.2693 22.2C84.6533 21.744 84.9533 21.168 85.1693 20.472C85.4093 19.776 85.5293 19.056 85.5293 18.312C85.5293 17.76 85.4453 17.232 85.2773 16.728C85.1333 16.224 84.8933 15.78 84.5573 15.396C84.2693 15.084 84.0053 14.832 83.7653 14.64C83.5253 14.448 83.2733 14.352 83.0093 14.352C82.9613 14.352 82.9013 14.364 82.8293 14.388C82.7813 14.388 82.7213 14.4 82.6493 14.424C82.5293 14.424 82.4333 14.388 82.3613 14.316C82.2893 14.196 82.2533 14.052 82.2533 13.884C82.2533 13.692 82.3253 13.512 82.4693 13.344C82.6613 13.152 82.8893 13.056 83.1533 13.056C83.5373 13.056 83.9453 13.284 84.3773 13.74C84.9293 14.34 85.3253 15.072 85.5653 15.936C85.8053 16.776 85.9253 17.652 85.9253 18.564C85.9253 19.548 85.7933 20.508 85.5293 21.444C85.2653 22.356 84.9053 23.1 84.4493 23.676C83.9933 24.252 83.4533 24.54 82.8293 24.54C82.2293 24.54 81.5933 24.204 80.9213 23.532C80.3693 22.956 79.8893 22.224 79.4813 21.336C79.0973 20.424 78.9533 19.452 79.0493 18.42C79.0493 18.3 79.0733 18.168 79.1213 18.024C78.1853 18.816 77.3093 19.656 76.4933 20.544C75.7013 21.432 74.9573 22.368 74.2613 23.352C74.1653 23.472 74.0813 23.58 74.0093 23.676C73.9373 23.772 73.8533 23.844 73.7573 23.892C72.8453 24.348 72.3173 24.576 72.1733 24.576ZM91.1084 13.812C90.8924 13.812 90.7844 13.668 90.7844 13.38C90.7844 13.044 90.9644 12.768 91.3244 12.552C91.7084 12.312 92.1164 12.12 92.5484 11.976C93.0044 11.832 93.3404 11.748 93.5564 11.724H93.7364C93.8804 11.724 93.9524 11.748 93.9524 11.796C93.9524 11.892 93.7844 12.072 93.4484 12.336L92.5844 13.02C92.4404 13.116 92.2964 13.212 92.1524 13.308C92.0084 13.404 91.8764 13.488 91.7564 13.56C91.4684 13.728 91.2524 13.812 91.1084 13.812ZM88.7684 24.036C88.4564 24.036 88.1804 23.952 87.9404 23.784C87.7244 23.592 87.5804 23.292 87.5084 22.884C87.4844 22.668 87.5564 22.248 87.7244 21.624C87.9164 20.976 88.1564 20.28 88.4444 19.536C88.7564 18.768 89.0564 18.06 89.3444 17.412C89.6324 16.764 89.8484 16.32 89.9924 16.08C90.1364 15.888 90.4244 15.684 90.8564 15.468C91.2884 15.228 91.6364 15.096 91.9004 15.072C92.0204 15 92.0804 15 92.0804 15.072C91.8884 15.312 91.6364 15.696 91.3244 16.224C91.0364 16.752 90.7364 17.352 90.4244 18.024C90.1124 18.672 89.8364 19.32 89.5964 19.968C89.3564 20.616 89.1884 21.156 89.0924 21.588C89.0684 21.708 89.0444 21.828 89.0204 21.948C89.0204 22.068 89.0204 22.188 89.0204 22.308C89.0204 23.004 89.2244 23.352 89.6324 23.352C89.8964 23.352 90.1964 23.196 90.5324 22.884C90.9884 22.5 91.4324 22.092 91.8644 21.66C92.2964 21.204 92.7764 20.64 93.3044 19.968C93.3044 19.968 93.3524 19.992 93.4484 20.04L93.5564 20.148C93.4364 20.292 93.1844 20.58 92.8004 21.012C92.4404 21.42 92.0444 21.852 91.6124 22.308C91.2044 22.74 90.8684 23.064 90.6044 23.28C90.3404 23.496 90.0404 23.676 89.7044 23.82C89.3924 23.964 89.0804 24.036 88.7684 24.036ZM95.2616 24.036C94.6136 24.036 94.1576 23.88 93.8936 23.568C93.6296 23.256 93.4976 22.848 93.4976 22.344C93.4976 22.08 93.5216 21.804 93.5696 21.516C93.6416 21.228 93.7256 20.928 93.8216 20.616C93.9416 20.184 94.0856 19.764 94.2536 19.356C94.4456 18.924 94.6496 18.504 94.8656 18.096L96.1976 15.54C96.2216 15.492 96.2456 15.444 96.2696 15.396C96.3176 15.348 96.3536 15.3 96.3776 15.252C96.2336 15.276 96.0896 15.324 95.9456 15.396C95.8016 15.444 95.6696 15.492 95.5496 15.54C95.3816 15.612 95.2016 15.684 95.0096 15.756C94.8416 15.804 94.6976 15.852 94.5776 15.9C94.5056 15.924 94.4096 15.936 94.2896 15.936C94.1216 15.936 94.0376 15.876 94.0376 15.756C94.0376 15.564 94.1336 15.36 94.3256 15.144C94.5416 14.928 94.7336 14.808 94.9016 14.784C95.1656 14.736 95.4656 14.664 95.8016 14.568C96.1616 14.472 96.5096 14.388 96.8456 14.316C97.1816 13.692 97.4816 13.056 97.7456 12.408C98.0336 11.76 98.2496 11.1 98.3936 10.428C98.4416 10.308 98.4656 10.2 98.4656 10.104C98.4656 9.984 98.4656 9.876 98.4656 9.78C98.4656 9.468 98.3936 9.264 98.2496 9.168C98.1296 9.048 97.9736 8.988 97.7816 8.988C97.6136 8.988 97.4096 9.024 97.1696 9.096C96.9296 9.168 96.7136 9.264 96.5216 9.384L96.5576 9.312C96.5576 9.144 96.5936 9.06 96.6656 9.06L98.5376 8.304L99.6536 7.764C99.8456 7.668 100.014 7.584 100.158 7.512C100.302 7.44 100.386 7.404 100.41 7.404H100.446C100.686 7.404 100.806 7.572 100.806 7.908C100.806 8.148 100.734 8.448 100.59 8.808C100.23 9.696 99.8096 10.584 99.3296 11.472C98.8736 12.36 98.4056 13.248 97.9256 14.136C98.3096 14.088 98.6576 14.064 98.9696 14.064C99.3056 14.064 99.6296 14.076 99.9416 14.1C100.278 14.124 100.518 14.244 100.662 14.46C100.83 14.652 100.914 14.856 100.914 15.072C100.914 15.168 100.89 15.288 100.842 15.432C100.818 15.528 100.782 15.576 100.734 15.576C100.59 15.576 100.542 15.48 100.59 15.288C100.71 15 100.674 14.796 100.482 14.676C100.29 14.556 100.026 14.496 99.6896 14.496C99.5936 14.496 99.4856 14.508 99.3656 14.532C99.2456 14.532 99.1256 14.544 99.0056 14.568C98.7416 14.592 98.4776 14.64 98.2136 14.712C97.9496 14.784 97.7216 14.844 97.5296 14.892L96.7016 16.476C96.6056 16.644 96.4496 16.956 96.2336 17.412C96.0416 17.844 95.8256 18.348 95.5856 18.924C95.3696 19.5 95.1776 20.076 95.0096 20.652C94.8656 21.204 94.7936 21.696 94.7936 22.128C94.7936 22.608 94.9376 22.944 95.2256 23.136C95.3936 23.232 95.5736 23.28 95.7656 23.28C96.2216 23.28 96.7016 23.1 97.2056 22.74C97.7096 22.356 98.1776 21.936 98.6096 21.48C99.0416 21 99.3656 20.64 99.5816 20.4C99.6296 20.352 99.7976 20.16 100.086 19.824C100.374 19.488 100.674 19.128 100.986 18.744C101.322 18.336 101.562 18.024 101.706 17.808C101.706 17.808 101.73 17.832 101.778 17.88C101.826 17.976 101.814 18.072 101.742 18.168C101.454 18.552 101.142 18.96 100.806 19.392C100.494 19.8 100.17 20.208 99.8336 20.616C99.4976 21.048 99.0776 21.54 98.5736 22.092C98.0936 22.62 97.5656 23.076 96.9896 23.46C96.4376 23.844 95.8616 24.036 95.2616 24.036ZM98.7013 24.936C98.7013 24.888 98.7133 24.816 98.7373 24.72C98.7853 24.648 98.8213 24.588 98.8453 24.54C98.9173 24.396 99.0013 24.204 99.0973 23.964C99.1933 23.724 99.3013 23.436 99.4213 23.1C99.7813 22.188 100.105 21.336 100.393 20.544C100.705 19.728 101.089 18.708 101.545 17.484L102.769 14.352C102.097 14.232 101.641 14.028 101.401 13.74C101.185 13.428 101.077 13.152 101.077 12.912C101.077 12.792 101.101 12.66 101.149 12.516C101.197 12.372 101.257 12.288 101.329 12.264C101.401 12.216 101.461 12.192 101.509 12.192C101.581 12.192 101.617 12.216 101.617 12.264C101.617 12.312 101.581 12.384 101.509 12.48C101.461 12.576 101.437 12.684 101.437 12.804C101.437 12.996 101.497 13.164 101.617 13.308C101.713 13.428 101.869 13.536 102.085 13.632C102.301 13.728 102.493 13.776 102.661 13.776C102.901 13.776 103.033 13.716 103.057 13.596C103.897 11.604 104.833 9.696 105.865 7.872C106.921 6.048 108.253 4.464 109.861 3.12C110.893 2.28 111.853 1.668 112.741 1.284C113.653 0.875999 114.445 0.672 115.117 0.672C115.957 0.672 116.617 0.924 117.097 1.428C117.601 1.908 117.853 2.568 117.853 3.408C117.853 4.032 117.697 4.74 117.385 5.532C117.073 6.3 116.581 7.128 115.909 8.016C114.949 9.264 113.797 10.32 112.453 11.184C111.109 12.048 109.705 12.732 108.241 13.236C106.777 13.716 105.385 14.052 104.065 14.244C103.801 14.964 103.489 15.792 103.129 16.728C102.793 17.64 102.481 18.504 102.193 19.32C101.905 20.136 101.689 20.76 101.545 21.192C102.505 20.208 103.417 19.248 104.281 18.312C105.169 17.376 105.985 16.464 106.729 15.576C107.185 15.048 107.737 14.784 108.385 14.784C108.505 14.784 108.637 14.796 108.781 14.82C108.949 14.844 109.081 14.88 109.177 14.928C109.297 14.976 109.333 15.024 109.285 15.072C109.237 15.12 109.165 15.156 109.069 15.18C108.949 15.204 108.781 15.312 108.565 15.504C108.373 15.672 108.133 15.996 107.845 16.476C107.341 17.22 106.909 18.012 106.549 18.852C106.189 19.668 105.937 20.532 105.793 21.444C105.769 21.588 105.745 21.732 105.721 21.876C105.721 22.02 105.721 22.152 105.721 22.272C105.721 22.632 105.781 22.908 105.901 23.1C106.045 23.292 106.261 23.352 106.549 23.28C106.909 23.16 107.293 22.932 107.701 22.596C108.109 22.236 108.505 21.852 108.889 21.444C109.273 21.036 109.585 20.688 109.825 20.4C109.873 20.352 110.029 20.16 110.293 19.824C110.581 19.488 110.881 19.128 111.193 18.744C111.529 18.336 111.769 18.036 111.913 17.844C111.961 17.796 111.985 17.808 111.985 17.88C112.033 18 112.021 18.096 111.949 18.168C111.661 18.552 111.361 18.96 111.049 19.392C110.737 19.8 110.413 20.208 110.077 20.616C109.597 21.192 109.081 21.756 108.529 22.308C108.001 22.836 107.425 23.292 106.801 23.676C106.249 23.988 105.793 24.144 105.433 24.144C105.217 24.144 105.025 24.096 104.857 24C104.617 23.856 104.437 23.652 104.317 23.388C104.221 23.1 104.173 22.788 104.173 22.452C104.173 21.756 104.317 20.988 104.605 20.148C104.893 19.308 105.169 18.612 105.433 18.06C104.617 18.708 103.933 19.272 103.381 19.752C103.093 20.016 102.817 20.292 102.553 20.58C102.289 20.844 102.037 21.12 101.797 21.408C101.533 21.768 101.305 22.212 101.113 22.74C100.921 23.268 100.789 23.7 100.717 24.036C100.477 24.18 100.153 24.336 99.7453 24.504L98.7013 24.972V24.936ZM104.209 13.776C105.553 13.56 106.921 13.152 108.313 12.552C109.705 11.928 111.013 11.16 112.237 10.248C113.485 9.312 114.529 8.28 115.369 7.152C116.041 6.24 116.521 5.448 116.809 4.776C117.097 4.08 117.241 3.492 117.241 3.012C117.241 2.436 117.061 2.004 116.701 1.716C116.341 1.428 115.873 1.284 115.297 1.284C114.577 1.284 113.773 1.5 112.885 1.932C111.997 2.34 111.145 2.964 110.329 3.804C109.489 4.668 108.661 5.7 107.845 6.9C107.053 8.1 106.333 9.312 105.685 10.536C105.037 11.736 104.545 12.816 104.209 13.776ZM128.16 26.484C127.224 26.484 126.756 25.836 126.756 24.54C126.756 24.108 126.804 23.604 126.9 23.028C126.996 22.428 127.152 21.744 127.368 20.976C127.44 20.664 127.584 20.184 127.8 19.536C128.04 18.864 128.244 18.3 128.412 17.844C127.908 18.228 127.332 18.72 126.684 19.32C126.036 19.896 125.424 20.472 124.848 21.048C124.296 21.624 123.876 22.08 123.588 22.416C123.396 22.68 123.3 22.764 123.3 22.668L122.904 22.956C122.736 23.052 122.58 23.1 122.436 23.1C122.316 23.1 122.256 23.04 122.256 22.92C122.256 22.728 122.292 22.416 122.364 21.984C122.46 21.552 122.568 21.06 122.688 20.508C122.808 19.956 122.94 19.44 123.084 18.96C123.252 18.456 123.408 18.06 123.552 17.772C122.496 18.612 121.548 19.476 120.708 20.364C119.892 21.252 119.316 22.272 118.98 23.424C118.956 23.52 118.86 23.604 118.692 23.676C118.548 23.724 118.38 23.772 118.188 23.82C118.02 23.844 117.84 23.892 117.648 23.964C117.456 24.012 117.276 24.072 117.108 24.144C117.108 24.096 117.132 24.024 117.18 23.928C117.228 23.832 117.264 23.76 117.288 23.712C117.36 23.568 117.432 23.376 117.504 23.136C117.6 22.872 117.732 22.584 117.9 22.272C118.116 21.864 118.32 21.408 118.512 20.904C118.728 20.4 118.908 19.968 119.052 19.608C119.196 19.224 119.268 19.032 119.268 19.032L119.7 18.06C119.748 17.892 119.796 17.736 119.844 17.592C119.916 17.448 119.964 17.304 119.988 17.16C120.012 17.064 120.024 16.944 120.024 16.8C120.024 16.56 119.964 16.368 119.844 16.224C119.748 16.08 119.532 16.008 119.196 16.008C118.932 16.008 118.644 16.068 118.332 16.188C118.044 16.308 117.768 16.428 117.504 16.548C117.528 16.5 117.552 16.428 117.576 16.332C117.624 16.236 117.66 16.176 117.684 16.152C117.804 16.104 118.104 15.984 118.584 15.792C119.088 15.6 119.556 15.42 119.988 15.252C120.18 15.18 120.372 15.096 120.564 15C120.78 14.88 120.972 14.772 121.14 14.676C121.188 14.628 121.296 14.556 121.464 14.46C121.632 14.364 121.74 14.316 121.788 14.316H121.86C122.076 14.316 122.184 14.484 122.184 14.82C122.136 15.18 122.004 15.648 121.788 16.224C121.596 16.752 121.368 17.268 121.104 17.772C120.864 18.276 120.72 18.588 120.672 18.708L119.664 21.012C120.672 19.98 121.608 18.996 122.472 18.06C123.336 17.1 124.152 16.164 124.92 15.252C125.376 14.7 125.94 14.424 126.612 14.424C126.732 14.424 126.864 14.436 127.008 14.46C127.176 14.46 127.308 14.484 127.404 14.532C127.524 14.58 127.548 14.64 127.476 14.712C127.428 14.76 127.368 14.796 127.296 14.82C126.912 14.916 126.516 15.24 126.108 15.792C125.7 16.344 125.316 17.004 124.956 17.772C124.62 18.516 124.344 19.26 124.128 20.004C123.912 20.724 123.78 21.3 123.732 21.732C123.732 21.756 123.72 21.792 123.696 21.84C123.696 21.864 123.696 21.9 123.696 21.948C124.08 21.468 124.464 21.024 124.848 20.616C125.232 20.184 125.616 19.764 126 19.356C126.432 18.9 126.876 18.468 127.332 18.06C127.788 17.628 128.244 17.184 128.7 16.728C128.82 16.584 128.952 16.488 129.096 16.44C129.264 16.368 129.432 16.32 129.6 16.296C129.816 16.248 130.02 16.212 130.212 16.188C130.404 16.14 130.584 16.068 130.752 15.972C130.92 15.852 131.028 15.804 131.076 15.828C131.148 15.852 131.184 15.876 131.184 15.9V15.972C131.184 16.116 131.088 16.272 130.896 16.44C130.608 16.704 130.308 17.124 129.996 17.7C129.684 18.252 129.396 18.864 129.132 19.536C128.892 20.184 128.688 20.784 128.52 21.336C128.208 22.416 128.052 23.316 128.052 24.036C128.052 25.02 128.388 25.512 129.06 25.512C129.42 25.512 129.804 25.308 130.212 24.9C130.644 24.492 130.98 24.168 131.22 23.928C131.244 23.928 131.256 23.94 131.256 23.964C131.28 23.964 131.28 23.964 131.256 23.964C131.184 24.276 130.8 24.768 130.104 25.44C129.768 25.776 129.408 26.028 129.024 26.196C128.64 26.388 128.352 26.484 128.16 26.484ZM134.33 24.432C133.37 24.432 132.686 24.216 132.278 23.784C131.894 23.352 131.702 22.812 131.702 22.164C131.702 21.78 131.762 21.384 131.882 20.976C132.002 20.568 132.158 20.16 132.35 19.752C132.182 19.656 132.098 19.536 132.098 19.392C132.098 19.176 132.35 18.984 132.854 18.816C133.07 18.504 133.334 18.084 133.646 17.556C133.982 17.004 134.342 16.452 134.726 15.9C135.134 15.348 135.554 14.88 135.986 14.496C136.418 14.112 136.838 13.92 137.246 13.92C137.582 13.92 137.798 14.052 137.894 14.316C137.99 14.292 138.122 14.28 138.29 14.28C138.986 14.28 139.334 14.64 139.334 15.36C139.334 15.912 139.142 16.44 138.758 16.944C138.374 17.424 137.918 17.724 137.39 17.844L137.426 18.024C137.426 18.024 137.546 18.012 137.786 17.988C138.026 17.94 138.23 17.904 138.398 17.88C138.806 17.856 139.25 17.856 139.73 17.88C140.21 17.904 140.522 18.012 140.666 18.204C140.714 18.252 140.702 18.288 140.63 18.312C140.582 18.336 140.534 18.336 140.486 18.312C140.294 18.216 139.982 18.168 139.55 18.168C138.974 18.168 138.29 18.24 137.498 18.384C136.73 18.528 136.022 18.708 135.374 18.924C134.726 19.116 134.282 19.296 134.042 19.464C133.826 19.8 133.61 20.232 133.394 20.76C133.178 21.264 133.07 21.756 133.07 22.236C133.07 22.668 133.19 23.04 133.43 23.352C133.694 23.64 134.162 23.784 134.834 23.784C135.554 23.784 136.214 23.604 136.814 23.244C137.438 22.884 138.014 22.44 138.542 21.912C139.07 21.36 139.538 20.844 139.946 20.364C139.994 20.316 140.162 20.124 140.45 19.788C140.738 19.452 141.038 19.092 141.35 18.708C141.686 18.3 141.926 17.988 142.07 17.772C142.07 17.772 142.094 17.796 142.142 17.844C142.19 17.94 142.178 18.036 142.106 18.132C141.794 18.516 141.482 18.924 141.17 19.356C140.858 19.788 140.534 20.208 140.198 20.616C139.718 21.216 139.178 21.816 138.578 22.416C138.002 22.992 137.366 23.472 136.67 23.856C135.974 24.24 135.194 24.432 134.33 24.432ZM134.402 18.744C134.858 18.576 135.218 18.456 135.482 18.384C135.746 18.312 135.986 18.228 136.202 18.132C136.418 18.012 136.622 17.88 136.814 17.736C137.03 17.568 137.258 17.34 137.498 17.052C137.714 16.788 137.894 16.5 138.038 16.188C138.182 15.852 138.254 15.552 138.254 15.288C138.254 15.048 138.182 14.856 138.038 14.712C137.894 14.568 137.642 14.664 137.282 15C136.922 15.312 136.538 15.708 136.13 16.188C135.746 16.668 135.386 17.148 135.05 17.628C134.738 18.108 134.522 18.48 134.402 18.744Z" fill="#F1F5F9"/>
</svg>
